<svg width="103" height="97" viewBox="0 0 103 97" fill="none" xmlns="http://www.w3.org/2000/svg">
<g clip-path="url(#clip0)">
<path d="M0.866226 36.619C14.0812 31.3262 25.1696 22.8864 37.3212 15.8771C37.625 15.7341 37.9288 15.591 38.0807 15.591C38.3847 13.8744 41.1186 13.3022 41.5743 15.3049C42.4857 19.1672 42.4857 23.1725 41.5743 27.0348C49.1693 24.1739 57.5236 22.8864 65.5741 21.1699C71.0423 20.0255 76.5106 19.0241 81.8269 17.7367C83.6497 17.3076 85.3205 16.8784 87.1433 16.3062C88.0547 16.0201 90.0293 15.0188 90.0293 15.8771C90.0293 15.8771 90.0293 15.8771 90.1812 15.8771C90.7888 15.1619 92.1559 15.0188 92.4596 16.1632C92.6115 16.5923 92.4596 17.0215 92.1559 17.4506C94.1305 19.3102 96.1051 21.1699 97.6241 23.4586C98.6874 25.0321 100.358 27.1779 100.814 29.1805C100.966 29.3236 100.966 29.3236 100.966 29.4666C103.7 38.7647 102.94 50.0655 102.789 59.6496C102.637 64.6563 103.396 77.3875 97.1684 79.8193C96.4089 80.1054 95.8014 79.5332 95.4976 78.9611C90.485 81.679 80.9156 78.3889 76.5106 77.2445C68.3082 75.0985 59.9539 72.5239 52.0554 69.3769C52.0554 71.2365 52.0554 73.2389 51.9035 75.0985C51.7516 77.1012 51.7516 79.9624 49.7767 81.2496C50.3843 82.1079 49.4729 83.3953 48.2577 82.8229C33.0684 75.5275 16.3596 68.5184 3.90414 57.3604C3.14466 56.6452 3.29681 55.7869 3.90414 55.2147C3.29681 52.9259 2.84112 50.6372 2.23354 48.4915C1.62595 46.2027 0.562683 43.4848 1.01837 41.053C1.01837 40.91 1.17027 40.6239 1.32241 40.4808C1.01837 40.1947 0.714828 39.9086 0.411034 39.6225C-0.197044 38.7647 -0.197044 37.0481 0.866226 36.619ZM88.3582 19.7394C77.2698 24.46 46.1312 28.0361 40.9665 28.7514C40.207 29.6097 38.2323 29.3236 38.3845 28.0361C38.6883 25.0321 38.6883 22.0281 38.3845 18.8811C27.5999 25.8904 17.1188 33.4719 5.11931 38.6217C15.4482 48.0628 26.0809 56.3595 37.625 64.3702C37.7769 64.2272 37.929 64.0839 38.2326 64.0839C38.6883 63.0826 38.3845 60.6507 38.2326 59.5064C38.0807 57.7898 37.3212 54.9288 38.5364 53.4984C39.144 52.9264 40.2072 52.9264 40.9667 53.4984C41.2708 53.7847 41.4224 54.0706 41.5743 54.3569C41.7262 54.3569 41.8781 54.3569 41.8781 54.3569C49.7767 56.6454 57.6755 58.6481 65.5741 60.3646C72.1056 61.7951 79.3966 63.2256 85.1686 66.8018C83.8016 60.3646 86.3838 52.0679 87.2952 45.7738C88.662 36.9051 89.7253 28.6083 88.3582 19.7394ZM5.87854 47.3476C6.48612 50.0655 7.24585 52.9264 7.3975 55.6443C19.8532 65.2285 34.4352 71.0934 47.6501 79.3902C47.6501 77.8167 48.5615 76.1001 48.7132 74.5264C49.0172 72.3806 49.1691 70.0919 49.1691 67.8031C48.4094 66.8018 49.4729 64.7991 51.1437 65.2283C58.2831 67.517 65.4219 70.2349 72.561 72.3806C78.1812 74.0972 89.7253 78.6747 95.3454 75.6707C95.6492 75.5277 96.1049 75.5277 96.4087 75.5277C97.1682 73.6681 97.9276 71.9515 98.2314 69.9488C99.2947 64.7994 99.1428 59.3635 99.1428 54.0706C99.1428 46.9182 97.6239 38.6214 98.9909 31.326C98.839 31.326 98.5352 31.183 98.3833 31.0399C96.5606 29.4664 95.6492 26.8915 94.434 24.8889C93.6746 23.6014 93.067 22.314 92.4594 21.0266C93.8265 27.1776 92.7632 34.0439 92.0037 39.9089C91.3961 45.2016 90.4848 50.4944 89.7253 55.7871C89.1177 59.7927 89.4215 63.9411 88.5101 67.9464C88.3582 68.8047 87.4468 69.0908 86.6874 68.9477V69.0905C86.6874 69.2336 86.5355 69.3769 86.3836 69.5197C84.5608 70.2352 83.4975 69.3769 81.8267 68.5186C77.1179 66.3726 71.6497 65.2285 66.6371 64.0839C58.5866 62.2243 49.6248 61.2232 42.0297 57.9331C42.0297 58.7914 42.1816 59.5064 42.1816 60.3646C42.3335 62.2243 42.6373 64.9422 40.9665 66.3726C40.3591 66.9448 39.4475 66.9448 38.8402 66.659C38.6883 67.3742 37.9288 67.9464 36.8655 67.6603C24.8655 63.6547 14.385 53.2125 5.27121 44.2003C5.575 45.2018 5.72689 46.3462 5.87854 47.3476Z" fill="#464646"/>
</g>
<defs>
<clipPath id="clip0">
<rect width="103" height="97" fill="black" transform="matrix(-1 0 0 1 103 0)"/>
</clipPath>
</defs>
</svg>
