<svg width="17" height="17" viewBox="0 0 17 17" fill="none" xmlns="http://www.w3.org/2000/svg">
<path d="M15.9898 16.4723L15.0177 4.44169C14.9985 4.20436 14.8003 4.02151 14.5621 4.02151H11.9522V3.44296C11.9522 1.5445 10.4281 0 8.52957 0H8.46925C6.5708 0 5.006 1.5445 5.006 3.44296V4.02151H2.43669C2.19857 4.02151 2.00036 4.20436 1.98116 4.44169L1.00625 16.5062C0.995954 16.6334 1.03934 16.7591 1.12586 16.8528C1.21238 16.9466 1.33425 17 1.46178 17H15.537C15.5374 17 15.5379 17 15.5383 17C15.7907 17 15.9953 16.7955 15.9953 16.543C15.9953 16.5189 15.9934 16.4953 15.9898 16.4723ZM5.91998 3.44296C5.91998 2.04847 7.07476 0.913978 8.46925 0.913978H8.52957C9.92406 0.913978 11.0383 2.04847 11.0383 3.44296V4.02151H5.91998V3.44296Z" fill="#464646"/>
</svg>
