<svg width="202" height="196" viewBox="0 0 202 196" fill="none" xmlns="http://www.w3.org/2000/svg">
<path d="M175.452 91.728V178.864H26.7796V91.728H12.928V185.584C12.928 189.296 16.0282 192.304 19.8536 192.304H182.377C186.203 192.304 189.303 189.296 189.303 185.584V91.728H175.452Z" fill="#1C1C1C"/>
<path d="M195.074 41.3257H6.9256C3.10023 41.3257 0 44.3338 0 48.0456V91.9496C0 95.6613 3.10023 98.6695 6.9256 98.6695H195.074C198.899 98.6695 202 95.6632 202 91.9496V48.0456C202 44.3338 198.9 41.3257 195.074 41.3257ZM188.148 85.232H13.8516V54.7681H188.149V85.232H188.148Z" fill="#1C1C1C"/>
<path d="M107.815 46.3456C107.344 44.603 95.9188 3.69604 62.562 3.69604C48.0503 3.69604 36.2444 15.1513 36.2444 29.2319C36.2444 43.3125 47.9466 54.7678 62.3312 54.7678H101.115C103.26 54.7678 105.287 53.8024 106.598 52.1536C107.909 50.5048 108.357 48.3592 107.815 46.3456ZM62.3316 41.328C55.4707 41.328 50.096 36.0146 50.096 29.2319C50.096 22.6755 55.8053 17.1358 62.5624 17.1358C77.7597 17.1358 86.86 31.6624 91.2349 41.3277H62.3316V41.328Z" fill="#1C1C1C"/>
<path d="M139.668 3.69604C106.312 3.69604 94.8866 44.603 94.4155 46.3456C93.8707 48.3592 94.3209 50.5052 95.6323 52.154C96.9437 53.8028 98.968 54.7682 101.115 54.7682H139.899C154.284 54.7682 165.986 43.3129 165.986 29.2323C165.986 15.1513 154.18 3.69604 139.668 3.69604ZM139.899 41.328H110.969C115.311 31.6624 124.384 17.1362 139.671 17.1362C146.428 17.1362 152.137 22.6759 152.137 29.2323C152.137 36.0146 146.763 41.328 139.899 41.328Z" fill="#1C1C1C"/>
<path d="M108.041 48.0479H94.1897V185.584H108.041V48.0479Z" fill="#1C1C1C"/>
</svg>
