<svg width="17" height="17" viewBox="0 0 17 17" fill="none" xmlns="http://www.w3.org/2000/svg">
<path d="M12.4844 0.996094C11.5619 0.996094 10.7161 1.28841 9.97067 1.86495C9.25597 2.41769 8.78014 3.12169 8.5 3.63362C8.21986 3.12166 7.74403 2.41769 7.02933 1.86495C6.28386 1.28841 5.43811 0.996094 4.51562 0.996094C1.94132 0.996094 0 3.10174 0 5.89402C0 8.91066 2.42194 10.9746 6.08842 14.0991C6.71105 14.6297 7.41678 15.2312 8.1503 15.8726C8.24699 15.9573 8.37117 16.0039 8.5 16.0039C8.62883 16.0039 8.75301 15.9573 8.8497 15.8727C9.58329 15.2311 10.289 14.6297 10.912 14.0988C14.5781 10.9746 17 8.91066 17 5.89402C17 3.10174 15.0587 0.996094 12.4844 0.996094Z" fill="#464646"/>
</svg>
