<svg width="16" height="17" viewBox="0 0 16 17" fill="none" xmlns="http://www.w3.org/2000/svg">
<g clip-path="url(#clip0)">
<path d="M7.37886 8.18895C8.50388 8.18895 9.47805 7.78545 10.274 6.98936C11.07 6.1934 11.4735 5.21948 11.4735 4.09434C11.4735 2.96959 11.07 1.99555 10.2739 1.19933C9.47779 0.403494 8.50375 0 7.37886 0C6.25372 0 5.2798 0.403494 4.48383 1.19946C3.68787 1.99542 3.28424 2.96946 3.28424 4.09434C3.28424 5.21948 3.68787 6.19353 4.48396 6.98949C5.28006 7.78532 6.2541 8.18895 7.37886 8.18895Z" fill="#464646"/>
<path d="M14.5433 13.0721C14.5204 12.7409 14.474 12.3795 14.4056 11.9979C14.3366 11.6135 14.2478 11.2501 14.1414 10.9179C14.0315 10.5746 13.8821 10.2356 13.6974 9.9107C13.5057 9.57348 13.2806 9.27984 13.0279 9.03821C12.7637 8.78543 12.4403 8.58219 12.0662 8.43394C11.6935 8.28648 11.2804 8.21177 10.8385 8.21177C10.6649 8.21177 10.4971 8.28297 10.173 8.49399C9.9735 8.62408 9.74017 8.77453 9.47974 8.94094C9.25704 9.08283 8.95536 9.21577 8.58273 9.33613C8.21918 9.45377 7.85006 9.51343 7.48573 9.51343C7.12141 9.51343 6.75241 9.45377 6.38847 9.33613C6.01624 9.2159 5.71455 9.08296 5.49212 8.94107C5.23415 8.77622 5.00069 8.62577 4.79823 8.49386C4.47449 8.28284 4.30653 8.21164 4.133 8.21164C3.69098 8.21164 3.27802 8.28648 2.90539 8.43407C2.53159 8.58206 2.20799 8.7853 1.94353 9.03834C1.69101 9.2801 1.46572 9.57361 1.27428 9.9107C1.08972 10.2356 0.940308 10.5745 0.830322 10.9181C0.724098 11.2502 0.635254 11.6135 0.566254 11.9979C0.497902 12.379 0.451469 12.7405 0.428513 13.0725C0.405945 13.3978 0.394531 13.7354 0.394531 14.0764C0.394531 14.9638 0.676628 15.6822 1.23291 16.212C1.78232 16.7348 2.50928 17.0001 3.39332 17.0001H11.5789C12.463 17.0001 13.1897 16.735 13.7392 16.212C14.2956 15.6826 14.5777 14.964 14.5777 14.0762C14.5776 13.7337 14.566 13.3958 14.5433 13.0721Z" fill="#464646"/>
</g>
<defs>
<clipPath id="clip0">
<rect width="17" height="17" fill="white" transform="translate(-1)"/>
</clipPath>
</defs>
</svg>
